<svg width="30" height="30" viewBox="0 0 30 30" fill="none" xmlns="http://www.w3.org/2000/svg">
<path d="M28.9454 11.6409C28.811 11.2237 28.5637 10.8519 28.231 10.5665C27.8983 10.2812 27.4931 10.0935 27.0603 10.0242L20.2687 8.92048L17.1203 2.80247C16.9198 2.41299 16.6159 2.08627 16.2418 1.85817C15.8678 1.63007 15.4382 1.5094 15.0001 1.5094C14.5621 1.5094 14.1324 1.63007 13.7584 1.85817C13.3844 2.08627 13.0805 2.41299 12.8799 2.80247L9.73156 8.92048L2.94014 10.0242C2.50775 10.0946 2.10311 10.2827 1.7706 10.5679C1.4381 10.8531 1.19058 11.2244 1.0552 11.641C0.919827 12.0577 0.901827 12.5035 1.00318 12.9297C1.10453 13.3559 1.32131 13.746 1.62975 14.057L6.47545 18.9419L5.42662 25.742C5.35932 26.1751 5.41277 26.6184 5.5811 27.0231C5.74943 27.4278 6.02611 27.7782 6.38071 28.0359C6.73532 28.2935 7.1541 28.4484 7.59102 28.4834C8.02793 28.5184 8.46604 28.4323 8.85717 28.2344L15.0001 25.1354L21.1433 28.2344C21.5344 28.4319 21.9724 28.5177 22.4092 28.4825C22.8459 28.4473 23.2645 28.2924 23.619 28.0349C23.9735 27.7773 24.2501 27.4271 24.4186 27.0226C24.587 26.6181 24.6407 26.175 24.5738 25.742L23.525 18.9419L28.3707 14.057C28.6801 13.7466 28.8976 13.3565 28.999 12.9301C29.1004 12.5037 29.0819 12.0575 28.9454 11.6409ZM27.0394 12.7366L21.5275 18.293L22.7207 26.028C22.7355 26.1206 22.7243 26.2155 22.6885 26.3022C22.6526 26.3889 22.5935 26.464 22.5176 26.5191C22.4417 26.5743 22.352 26.6073 22.2585 26.6146C22.165 26.6219 22.0713 26.6032 21.9877 26.5605L15.0001 23.0354L8.01248 26.5606C7.92895 26.6033 7.83523 26.622 7.74171 26.6147C7.64819 26.6074 7.55851 26.5744 7.48261 26.5192C7.40672 26.4641 7.34758 26.389 7.31173 26.3023C7.27588 26.2157 7.26474 26.1207 7.27953 26.0281L8.47279 18.293L2.96094 12.7366C2.89511 12.6701 2.84886 12.5867 2.82725 12.4957C2.80564 12.4047 2.80951 12.3094 2.83842 12.2204C2.86733 12.1315 2.92018 12.0521 2.99117 11.9912C3.06216 11.9302 3.14856 11.89 3.2409 11.8749L10.966 10.6195L14.5471 3.66046C14.59 3.57722 14.6549 3.50738 14.7348 3.45863C14.8147 3.40987 14.9065 3.38408 15.0001 3.38408C15.0937 3.38408 15.1855 3.40987 15.2655 3.45863C15.3454 3.50738 15.4103 3.57722 15.4531 3.66046L19.0343 10.6195L26.7594 11.8749C26.8517 11.89 26.9381 11.9302 27.0091 11.9912C27.0801 12.0521 27.1329 12.1315 27.1619 12.2204C27.1908 12.3094 27.1946 12.4047 27.173 12.4957C27.1514 12.5867 27.1052 12.6701 27.0393 12.7366L27.0394 12.7366Z" fill="#73C0D4" fill-opacity="0.65"/>
</svg>
