<svg width="940" height="272" viewBox="0 0 940 272" fill="none" xmlns="http://www.w3.org/2000/svg">
<mask id="path-1-inside-1_237_196" fill="white">
<path fill-rule="evenodd" clip-rule="evenodd" d="M29.2337 5H910.461C910.824 7.16676 911.458 9.29068 912.354 11.3266C913.841 14.7071 916.021 17.7788 918.769 20.3661C921.517 22.9535 924.779 25.0059 928.37 26.4061C930.504 27.2384 932.729 27.8306 934.999 28.1741V244.49C928.891 245.414 923.2 248.126 918.769 252.298C914.487 256.329 911.653 261.468 910.581 267H29.1138C28.7386 265.063 28.1455 263.165 27.3415 261.337C25.8543 257.957 23.6744 254.885 20.9263 252.298C18.1782 249.71 14.9158 247.658 11.3252 246.258C9.38256 245.5 7.36443 244.941 5.30565 244.588V28.0757C7.36443 27.7225 9.38256 27.1638 11.3252 26.4061C14.9158 25.0059 18.1782 22.9535 20.9263 20.3661C23.6744 17.7788 25.8543 14.7071 27.3415 11.3266C28.2372 9.29068 28.8711 7.16676 29.2337 5ZM0.305646 244.138V28.5256C0.203793 28.5266 0.101909 28.5271 0 28.5271L1.90735e-06 0.663708H0.305646V0H5.30565H934.999H939.999V5V267V272L939.695 272H910.101H29.5942H1.90735e-06L0 244.137C0.101909 244.137 0.203793 244.137 0.305646 244.138Z"/>
</mask>
<path fill-rule="evenodd" clip-rule="evenodd" d="M29.2337 5H910.461C910.824 7.16676 911.458 9.29068 912.354 11.3266C913.841 14.7071 916.021 17.7788 918.769 20.3661C921.517 22.9535 924.779 25.0059 928.37 26.4061C930.504 27.2384 932.729 27.8306 934.999 28.1741V244.49C928.891 245.414 923.2 248.126 918.769 252.298C914.487 256.329 911.653 261.468 910.581 267H29.1138C28.7386 265.063 28.1455 263.165 27.3415 261.337C25.8543 257.957 23.6744 254.885 20.9263 252.298C18.1782 249.71 14.9158 247.658 11.3252 246.258C9.38256 245.5 7.36443 244.941 5.30565 244.588V28.0757C7.36443 27.7225 9.38256 27.1638 11.3252 26.4061C14.9158 25.0059 18.1782 22.9535 20.9263 20.3661C23.6744 17.7788 25.8543 14.7071 27.3415 11.3266C28.2372 9.29068 28.8711 7.16676 29.2337 5ZM0.305646 244.138V28.5256C0.203793 28.5266 0.101909 28.5271 0 28.5271L1.90735e-06 0.663708H0.305646V0H5.30565H934.999H939.999V5V267V272L939.695 272H910.101H29.5942H1.90735e-06L0 244.137C0.101909 244.137 0.203793 244.137 0.305646 244.138Z" fill="white"/>
<path d="M910.461 5L915.393 4.17486L914.694 0H910.461V5ZM29.2337 5V0H25.0008L24.3022 4.17481L29.2337 5ZM912.354 11.3266L916.93 9.3131V9.31307L912.354 11.3266ZM918.769 20.3661L922.196 16.7257L922.196 16.7257L918.769 20.3661ZM928.37 26.4061L930.187 21.7479V21.7479L928.37 26.4061ZM934.999 28.1741H939.999V23.8738L935.747 23.2304L934.999 28.1741ZM934.999 244.49L935.747 249.433L939.999 248.79V244.49H934.999ZM918.769 252.298L922.196 255.938V255.938L918.769 252.298ZM910.581 267V272H914.705L915.49 267.951L910.581 267ZM29.1138 267L24.2051 267.951L24.9896 272H29.1138V267ZM27.3415 261.337L22.7648 263.351H22.7649L27.3415 261.337ZM20.9263 252.298L24.3538 248.657H24.3538L20.9263 252.298ZM11.3252 246.258L13.1419 241.599H13.1419L11.3252 246.258ZM5.30565 244.588H0.305645V248.803L4.46012 249.516L5.30565 244.588ZM5.30565 28.0757L4.46013 23.1477L0.305645 23.8605V28.0757H5.30565ZM11.3252 26.4061L9.50855 21.7479H9.50855L11.3252 26.4061ZM20.9263 20.3661L24.3538 24.0065L24.3538 24.0065L20.9263 20.3661ZM27.3415 11.3266L31.9182 13.3401V13.3401L27.3415 11.3266ZM0.305646 28.5256H5.30565V23.4768L0.257053 23.5259L0.305646 28.5256ZM0.305646 244.138L0.256959 249.138L5.30565 249.187V244.138H0.305646ZM0 28.5271H-5L-5 33.5271H0V28.5271ZM1.90735e-06 0.663708V-4.33629H-5L-5 0.663707L1.90735e-06 0.663708ZM0.305646 0.663708V5.66371H5.30565V0.663708H0.305646ZM0.305646 0V-5H-4.69435V0H0.305646ZM939.999 0H944.999V-5H939.999V0ZM939.999 272L940.001 277L944.999 276.998V272H939.999ZM939.695 272V277H939.697L939.695 272ZM1.90735e-06 272H-5L-5 277H1.90735e-06V272ZM0 244.137V239.137H-5L-5 244.137H0ZM910.461 0H29.2337V10H910.461V0ZM916.93 9.31307C916.201 7.65492 915.687 5.93003 915.393 4.17486L905.53 5.82514C905.961 8.40349 906.715 10.9264 907.777 13.3401L916.93 9.31307ZM922.196 16.7257C919.926 14.5878 918.141 12.0661 916.93 9.3131L907.777 13.34C909.54 17.3482 912.116 20.9698 915.341 24.0065L922.196 16.7257ZM930.187 21.7479C927.18 20.5755 924.468 18.8643 922.196 16.7257L915.341 24.0065C918.566 27.0426 922.378 29.4363 926.553 31.0644L930.187 21.7479ZM935.747 23.2304C933.839 22.9417 931.973 22.4445 930.187 21.7479L926.553 31.0644C929.035 32.0323 931.619 32.7195 934.251 33.1178L935.747 23.2304ZM939.999 244.49V28.1741H929.999V244.49H939.999ZM922.196 255.938C925.861 252.488 930.607 250.211 935.747 249.433L934.251 239.546C927.174 240.617 920.539 243.764 915.341 248.657L922.196 255.938ZM915.49 267.951C916.357 263.474 918.66 259.268 922.196 255.938L915.341 248.657C910.315 253.39 906.948 259.463 905.672 266.049L915.49 267.951ZM29.1138 272H910.581V262H29.1138V272ZM34.0226 266.049C33.5762 263.745 32.8714 261.49 31.9182 259.324L22.7649 263.351C23.4197 264.839 23.901 266.382 24.2051 267.951L34.0226 266.049ZM31.9182 259.324C30.1548 255.316 27.5791 251.694 24.3538 248.657L17.4988 255.938C19.7696 258.076 21.5537 260.598 22.7648 263.351L31.9182 259.324ZM24.3538 248.657C21.129 245.621 17.3168 243.228 13.1419 241.599L9.50855 250.916C12.5147 252.088 15.2274 253.8 17.4988 255.938L24.3538 248.657ZM13.1419 241.599C10.8826 240.718 8.53894 240.07 6.15118 239.66L4.46012 249.516C6.18993 249.813 7.88252 250.282 9.50855 250.916L13.1419 241.599ZM0.305645 28.0757V244.588H10.3056V28.0757H0.305645ZM9.50855 21.7479C7.88251 22.382 6.18994 22.8509 4.46013 23.1477L6.15116 33.0037C8.53893 32.594 10.8826 31.9455 13.1419 31.0644L9.50855 21.7479ZM17.4988 16.7257C15.2274 18.8643 12.5147 20.5755 9.50855 21.7479L13.1419 31.0644C17.3168 29.4363 21.129 27.0427 24.3538 24.0065L17.4988 16.7257ZM22.7649 9.3131C21.5537 12.0661 19.7696 14.5878 17.4988 16.7257L24.3538 24.0065C27.5791 20.9698 30.1548 17.3482 31.9182 13.3401L22.7649 9.3131ZM24.3022 4.17481C24.0085 5.93003 23.4943 7.65495 22.7649 9.3131L31.9182 13.3401C32.9801 10.9264 33.7337 8.40349 34.1651 5.82519L24.3022 4.17481ZM-4.69435 28.5256V244.138H5.30565V28.5256H-4.69435ZM0 33.5271C0.11813 33.5271 0.236211 33.5265 0.354239 33.5254L0.257053 23.5259C0.171374 23.5267 0.0856888 23.5271 0 23.5271V33.5271ZM-5 0.663707L-5 28.5271H5L5 0.663708L-5 0.663707ZM0.305646 -4.33629H1.90735e-06V5.66371H0.305646V-4.33629ZM-4.69435 0V0.663708H5.30565V0H-4.69435ZM5.30565 -5H0.305646V5H5.30565V-5ZM934.999 -5H5.30565V5H934.999V-5ZM939.999 -5H934.999V5H939.999V-5ZM944.999 5V0H934.999V5H944.999ZM944.999 267V5H934.999V267H944.999ZM944.999 272V267H934.999V272H944.999ZM939.697 277L940.001 277L939.997 267L939.693 267L939.697 277ZM910.101 277H939.695V267H910.101V277ZM29.5942 277H910.101V267H29.5942V277ZM1.90735e-06 277H29.5942V267H1.90735e-06V277ZM-5 244.137L-5 272H5L5 244.137H-5ZM0.354332 239.138C0.235994 239.137 0.117879 239.137 0 239.137V249.137C0.0859394 249.137 0.171592 249.137 0.256959 249.138L0.354332 239.138Z" fill="#DCB189" mask="url(#path-1-inside-1_237_196)"/>
</svg>
